<?xml version="1.0" encoding="utf-8"?>
<!-- Generator: Adobe Illustrator 21.0.2, SVG Export Plug-In . SVG Version: 6.00 Build 0)  -->
<svg version="1.1" xmlns="http://www.w3.org/2000/svg" xmlns:xlink="http://www.w3.org/1999/xlink" x="0px" y="0px"
	 viewBox="0 0 166.4 105.5" style="enable-background:new 0 0 166.4 105.5;" xml:space="preserve">
<style type="text/css">
	.st0{opacity:7.000000e-02;}
	.st1{fill:#479F00;}
	.st2{clip-path:url(#SVGID_2_);fill:#FAAC2C;}
	.st3{opacity:0.18;clip-path:url(#SVGID_2_);}
	.st4{fill:#FFFFFF;}
	.st5{fill:#A42F01;}
	.st6{opacity:0.5;fill:#FF0013;}
	.st7{opacity:0.5;fill:#004FED;}
	.st8{clip-path:url(#SVGID_4_);fill:#ECECEB;}
	.st9{opacity:0.71;clip-path:url(#SVGID_4_);fill:#CCCCCE;}
	.st10{clip-path:url(#SVGID_6_);fill:#FAAC2C;}
	.st11{opacity:0.11;clip-path:url(#SVGID_6_);fill:#050303;}
	.st12{clip-path:url(#SVGID_8_);fill:#EDECB8;}
	.st13{opacity:9.000000e-02;clip-path:url(#SVGID_8_);fill:none;stroke:#1D1D1B;stroke-width:3;stroke-miterlimit:10;}
	.st14{opacity:5.000000e-02;clip-path:url(#SVGID_8_);}
	.st15{fill:#070404;}
	.st16{clip-path:url(#SVGID_10_);fill:#CCCCCC;}
	.st17{opacity:0.22;clip-path:url(#SVGID_10_);}
	.st18{clip-path:url(#SVGID_10_);fill:#EF1122;}
	.st19{clip-path:url(#SVGID_10_);fill:#F2F2F2;}
	.st20{opacity:0.11;clip-path:url(#SVGID_10_);}
	.st21{clip-path:url(#SVGID_12_);fill:#EDECB8;}
	.st22{opacity:0.11;clip-path:url(#SVGID_12_);fill:none;stroke:#000000;stroke-width:3;stroke-miterlimit:10;}
	.st23{clip-path:url(#SVGID_14_);fill:#EDECB8;}
	.st24{opacity:0.11;clip-path:url(#SVGID_14_);fill:none;stroke:#000000;stroke-width:2;stroke-miterlimit:10;}
	.st25{clip-path:url(#SVGID_16_);fill:#EDECB8;}
	.st26{opacity:0.11;clip-path:url(#SVGID_16_);fill:none;stroke:#000000;stroke-width:2;stroke-miterlimit:10;}
	.st27{clip-path:url(#SVGID_18_);fill:#EDECB8;}
	.st28{opacity:0.11;clip-path:url(#SVGID_18_);fill:none;stroke:#000000;stroke-width:2;stroke-miterlimit:10;}
	.st29{clip-path:url(#SVGID_20_);fill:#EDECB8;}
	.st30{opacity:0.11;clip-path:url(#SVGID_20_);fill:none;stroke:#000000;stroke-width:2;stroke-miterlimit:10;}
</style>
<g id="Ombres" class="st0">
	<g>
		<ellipse cx="43.2" cy="99" rx="28.9" ry="5"/>
		<path d="M162.7,99.8c-1.7-1.1-3.1,0.2-6.3-0.2c-1.7-0.2-2.4-0.7-3.4-0.7c0.8-1.9-0.4-2.7-2.9-2.9c-3.5-0.3-13.1-1.5-28-1.8
			c-4-0.1,3.3-3-28.2-0.8c-1.2,0.1-3.7,0.3-4.6,1.9c-0.3,0.5-0.4,1.2-0.4,1.9c-0.4-0.5-1.4,0.9-1.8,0.7c-2.7-1.3-0.9-0.1-7.2-0.4
			c-1.5-0.1-2.5-0.4-3.1,0.4c-0.6,0.8-3.3,3.1-2.6,3.3c4.8,1.5,11.6,1.4,16.5,0.4c0.2,0.2,0.4,0.3,0.6,0.3c8,1.5,9.8,0.4,37.2,0.3
			c4.3,0,12.3-0.2,17.7-0.4c2.1-0.1,3.4,0.2,4.3,0.1c0.8,0,2.3-0.4,2.9-0.3c1.2,0.2,1.2,0.3,1.8,0.3c0.9,0,1.4-0.5,2.4-0.4
			c2.4,0.2,5.9,0.9,6.2-0.2C164.1,100.8,163.2,100.1,162.7,99.8z"/>
	</g>
</g>
<g id="Clem">
	<g id="Calque_3">
		<path class="st1" d="M40.5,35.8c0,0-2.8-30.2,28.7-34.3C71.7,28.9,40.5,35.8,40.5,35.8z"/>
		<path class="st1" d="M15.5,9.5c0,0,22.8-1.7,22.8,23.7C14.2,31,15.5,9.5,15.5,9.5z"/>
	</g>
	<g>
		<defs>
			<circle id="SVGID_1_" cx="39.5" cy="66" r="34.3"/>
		</defs>
		<clipPath id="SVGID_2_">
			<use xlink:href="#SVGID_1_"  style="overflow:visible;"/>
		</clipPath>
		<rect x="-1.9" y="25.2" class="st2" width="91.6" height="94.3"/>
		<rect x="-4.3" y="69.9" class="st3" width="81.3" height="6.2"/>
	</g>
	<g id="Calque_4">
		<circle class="st4" cx="27.6" cy="64.5" r="6.3"/>
		<circle cx="27.6" cy="64.5" r="4.2"/>
		<circle class="st4" cx="26" cy="62.9" r="1.6"/>
		<circle class="st4" cx="51.5" cy="64.5" r="6.3"/>
		<circle cx="51.5" cy="64.5" r="4.2"/>
		<circle class="st4" cx="49.9" cy="62.9" r="1.6"/>
	</g>
	<g id="Calque_5">
		<g>
			<g>
				<path class="st5" d="M37.1,86.8c6.8,0,15.5,1.2,18.3-7c0.8-2.4-3-3.5-3.9-1.1c-1.9,5.6-10,4-14.4,4
					C34.6,82.8,34.6,86.8,37.1,86.8L37.1,86.8z"/>
			</g>
		</g>
	</g>
	<g id="Calque_7">
		<rect x="8.5" y="53.6" class="st6" width="28.6" height="16"/>
		<rect x="41.3" y="53.9" class="st7" width="28.6" height="16"/>
	</g>
	<g id="Calque_6">
		<g id="Calque_8">
		</g>
		<g>
			<defs>
				<path id="SVGID_3_" d="M29.9,72.3H6.6l-1.8-2H2.1V50.5h26.7h21h27.2v19.8h-2.8l-1.8,2H48.6H29.9z M34.9,66.4V56.3
					c0-1-0.8-1.8-1.8-1.8H11.9c-1,0-1.8,0.8-1.8,1.8v10.1c0,1,0.8,1.8,1.8,1.8H33C34,68.3,34.9,67.5,34.9,66.4z M69,66.5V56.3
					c0-1-0.8-1.8-1.8-1.8H46.1c-1,0-1.8,0.8-1.8,1.8v10.1c0,1,0.8,1.8,1.8,1.8h21.1C68.2,68.3,69,67.5,69,66.5z"/>
			</defs>
			<clipPath id="SVGID_4_">
				<use xlink:href="#SVGID_3_"  style="overflow:visible;"/>
			</clipPath>
			<rect x="-6" y="44.9" class="st8" width="93.9" height="31.5"/>
			<rect x="-4.7" y="71.4" class="st9" width="93.9" height="31.5"/>
			<polygon class="st9" points="73.8,49.4 73.8,67.6 68.3,74.3 82.6,73.3 82.6,50.5 			"/>
			<polygon class="st9" points="4.8,49.5 4.8,67.6 10.6,74.3 -4.2,73.3 -4.2,50.6 			"/>
		</g>
	</g>
</g>
<g id="Calque_11">
	<g>
		<defs>
			<path id="SVGID_5_" d="M98.5,43.8c6.4,0.3,11.3-4.4,13.5-8.4c0.8-1.6,2.2-4.2,1.3-6.9c-1.1-3.3-5-4.5-6.7-5
				c-1.1-0.3-7.9-2.4-13.1,1.9c-4.2,3.4-6.5,10.2-3.6,14.6C92.3,43.5,97.3,43.7,98.5,43.8z"/>
		</defs>
		<clipPath id="SVGID_6_">
			<use xlink:href="#SVGID_5_"  style="overflow:visible;"/>
		</clipPath>
		<rect x="81.8" y="18.6" class="st10" width="46" height="28.2"/>
		<path class="st11" d="M102.8,48.9c-6.3-1.2-12.1-4.3-11.4-8c0.3-1.5,2.5-2.1,4.1-3.2c1.5-1,0.2-4.1,4.4-5c1.8-0.4,3.6,0.2,5.7-2.5
			c3-3.9,8.8-2.2,12.3-2.3c3.4-0.1,6.3,2.1,6.4,6.7C124.3,42.6,112.4,50.6,102.8,48.9z"/>
	</g>
</g>
<g id="popcorn">
	<g>
		<defs>
			<path id="SVGID_7_" d="M135.3,41.5c0-2.5-2.6-4.6-5.8-4.6c-0.5,0-1,0.1-1.5,0.2c-0.8-1.1-2.5-1.8-4.4-1.8c-0.8,0-1.5,0.1-2.1,0.3
				c0-0.1,0-0.2,0-0.3c0-2.8-2.3-5.1-5.1-5.1c-1.4,0-2.7,0.6-3.7,1.5l0,0c0,0,0,0,0,0c-0.3,0.3-0.6,0.7-0.8,1.1
				c-1.3,1.8-3.9,5.1-5.2,5.5c0-2.8-2.3-5.1-5.1-5.1s-5.1,2.3-5.1,5.1c0,0,0,0,0,0c-2.7,0.1-4.8,2.1-4.8,4.5c0,2.5,2.2,4.5,5,4.5
				c0.9,0,1.8-0.2,2.5-0.6l-0.4,0.6c0,0,35.3,1.4,37.8-2.1C138.3,42.9,135.3,41.5,135.3,41.5z"/>
		</defs>
		<clipPath id="SVGID_8_">
			<use xlink:href="#SVGID_7_"  style="overflow:visible;"/>
		</clipPath>
		<rect x="82.5" y="23.4" class="st12" width="62.9" height="41.1"/>
		<path class="st13" d="M135.5,48.9c0.2-1.6,0.7-2.3,0.7-2.3c-0.2-1.3-0.1-0.5-0.3-2.2c-0.1-1.2-1.9-1.8-2-2.5c-0.3-1.9-1-2.5-1.6-3
			c-0.3-0.2-0.6-0.4-1-0.6c-1.9-0.9-1.5,0.7-3.6-0.5c-1.2-0.7-1.9-1.8-3.2-2.1c-0.9-0.2-1.6,0.2-2.9-0.3c-1.9-0.8-2.6-4.2-4.5-5.3
			c-1.6-0.9-3-0.2-4.4,1c-2.6,2-4.1,6.9-5.9,7.3c-0.6,0.1,1.2-2.8-2.4-4.8c-2.7-1.5-3.9-0.9-4.5-0.8c-1.6,0.2-4.2,0.9-4.1,2.6
			c0.2,3-1.9,2.6-2.8,2.3c-1.2-0.5-1.6-0.1-2,1.1c-0.8,2.1-1.1,5.6-0.7,7.2C92.3,54.4,135.1,53.7,135.5,48.9z"/>
		<g class="st14">
			<g>
				<path class="st15" d="M113.7,38.6c-0.3,1.5,0.7,2.9,2.3,3c1.6,0.2,3.1-0.8,3.2-2.5c0.1-0.8-1.2-0.8-1.3,0c0,0,0-0.1,0,0.1
					c0,0.2-0.1,0.3-0.2,0.5c-0.3,0.6-0.9,0.7-1.5,0.7c-0.5,0-1-0.3-1.2-0.8c0-0.2,0-0.3-0.1-0.5c0-0.1,0-0.4,0-0.1
					C115.1,38.2,113.8,37.8,113.7,38.6L113.7,38.6z"/>
			</g>
		</g>
		<g class="st14">
			<g>
				<path class="st15" d="M126.6,39.2c-1.5,0.4-2.2,1.9-1.7,3.3c0.5,1.5,2,2.5,3.6,1.8c0.8-0.3,0.4-1.6-0.3-1.3
					c-1.8,0.7-2.9-2.1-1.2-2.7C127.8,40.2,127.4,38.9,126.6,39.2L126.6,39.2z"/>
			</g>
		</g>
		<g class="st14">
			<g>
				<path class="st15" d="M97.8,39.6c0.4,3.8,6.9,2.3,6.2-1.3c-0.2-0.8-1.4-0.5-1.3,0.3c0.2,0.8-0.7,1.6-1.7,1.8
					c-0.6,0.1-1.3,0.2-1.7-0.3c-0.1-0.1-0.2-0.3-0.2-0.4c0-0.1,0-0.3,0-0.1C99,38.8,97.7,38.7,97.8,39.6L97.8,39.6z"/>
			</g>
		</g>
		<g class="st14">
			<g>
				<path class="st15" d="M110.2,44.9c0.7-1.5,0-3.1-1.6-3.6c-1.5-0.5-3,0.2-3.5,1.7c-0.3,0.8,1,1.1,1.3,0.3c0-0.1,0,0.1,0-0.1
					c0.1-0.1,0.2-0.3,0.3-0.4c0.4-0.4,0.9-0.5,1.4-0.4c0.6,0.1,1.1,0.5,1.2,1.1c0,0.2,0,0.3-0.1,0.5c0,0.1-0.2,0.4,0,0.1
					C108.8,45,109.9,45.7,110.2,44.9L110.2,44.9z"/>
			</g>
		</g>
	</g>
</g>
<g id="bucket">
	<g>
		<defs>
			<path id="SVGID_9_" d="M93.2,100.4h40.6c1.3-16.3,2.7-32.5,4-48.8c0.2-2.4,0.4-4.8,0.6-7.2c-16.5,0-33,0-49.5,0L93.2,100.4z"/>
		</defs>
		<clipPath id="SVGID_10_">
			<use xlink:href="#SVGID_9_"  style="overflow:visible;"/>
		</clipPath>
		<rect x="84.8" y="42.3" class="st16" width="61.9" height="67.2"/>
		<rect x="88.8" y="97.5" class="st17" width="49.5" height="5.9"/>
		<rect x="87.8" y="47.4" class="st18" width="51.6" height="48.1"/>
		<polygon class="st19" points="100.7,95.5 98.7,47.4 106.8,47.4 107.1,95.5 		"/>
		<polygon class="st19" points="120.8,47.4 119.1,95.5 126.1,95.5 128.9,47.4 		"/>
		<polygon class="st20" points="116.6,38.9 115.8,101.5 138.3,102.9 144.1,40.8 		"/>
	</g>
</g>
<g id="Miettes">
	<g>
		<defs>
			<path id="SVGID_11_" d="M86.6,96.8c-0.5,0-1,0.2-1.4,0.5c-0.6-0.2-0.9-0.6-1.1-1c0-0.2-0.1-0.4-0.2-0.6c0,0,0,0,0,0l0,0
				c-0.4-0.9-1.3-1.5-2.3-1.5c-1.1,0-2,0.7-2.4,1.7c-0.3-0.2-0.6-0.3-1-0.3c-0.8,0-1.5,0.5-1.8,1.2c-0.1,0-0.1,0-0.2,0
				c-1.3,0-2.4,1.1-2.4,2.4c0,1.3,1.1,2.4,2.4,2.4l10.4-0.2c1.2,0,2.3-1,2.3-2.3S87.8,96.8,86.6,96.8z"/>
		</defs>
		<clipPath id="SVGID_12_">
			<use xlink:href="#SVGID_11_"  style="overflow:visible;"/>
		</clipPath>
		<rect x="70.9" y="90.9" class="st21" width="145.3" height="26.9"/>
		<path class="st22" d="M67.6,99.8c3.4,2.4,2.5,3.1,2.9,2.7c0.3-0.3,2.6,0,5.6-1c1.5-0.5,1.8-1.6,2.8-1.4c1,0.2,0.8,0.8,4.9,0.7
			c2.5-0.1,3.7,0.7,7.5-3.1c1.1-1.1,15.5,2.6,17.7,2.4c2.2-0.3,3.5,0.5,5.8,1c3.5,0.8,6.3,0.5,8.4,0.2c6-0.8,7.4-3.3,11.7-2.5
			c1.3,0.2,3.8,1,3.9,1c2.7,0.8,2.9,1,4.4,1.4c3.9,1,7.3,0.6,8.5,0.4c3.1-0.5,2.9-1.2,5-1.2c2.7,0.1,3.8,1.3,6.2,0.9
			c1.5-0.2,2.6-0.9,3.3-1.4"/>
	</g>
	<g>
		<defs>
			<path id="SVGID_13_" d="M111,96.7c-0.4,0-0.7,0.1-0.9,0.4c-0.2-0.1-0.4-0.1-0.6-0.1c-0.9,0-1.6,0.7-1.6,1.6
				c0,0.4,0.2,0.9,0.5,1.1c0,0.1,0,0.2,0,0.2c0,0.8,0.6,1.4,1.4,1.4c0.5,0,0.9-0.3,1.2-0.6c0,0,0.1,0,0.1,0c0.8,0,1.5-0.7,1.5-1.5
				c0-0.2,0-0.3-0.1-0.5c0.1-0.2,0.1-0.3,0.1-0.5C112.5,97.3,111.8,96.7,111,96.7z"/>
		</defs>
		<clipPath id="SVGID_14_">
			<use xlink:href="#SVGID_13_"  style="overflow:visible;"/>
		</clipPath>
		<rect x="70.9" y="90.9" class="st23" width="145.3" height="26.9"/>
		<path class="st24" d="M93.9,100.6c4.2,1,9.1,1.5,13.1,0.6c6.4-1.4,4.5-0.6,8.3-4.5"/>
	</g>
	<g>
		<defs>
			<path id="SVGID_15_" d="M130.4,97c0-0.1,0-0.1,0-0.2c0-0.7-0.6-1.3-1.3-1.3c-0.3,0-0.6,0.1-0.8,0.3c-0.1-1.1-0.9-1.9-2-1.9
				c-0.7,0-1.4,0.4-1.7,1c0,0-0.1,0-0.1,0c-1,0-1.7,0.8-1.7,1.7c0,0.1,0,0.2,0,0.3c-0.3,0.4-0.6,0.8-0.6,1.4c0,1.1,0.9,2,2,2
				c0.1,0,0.2,0,0.3,0c0.3,0.4,0.8,0.7,1.4,0.7c0.8,0,1.5-0.5,1.7-1.2c0.3,0.2,0.6,0.3,1,0.3c0.7,0,1.3-0.4,1.6-1.1
				c0.5-0.1,0.9-0.5,0.9-1C131.1,97.6,130.8,97.2,130.4,97z"/>
		</defs>
		<clipPath id="SVGID_16_">
			<use xlink:href="#SVGID_15_"  style="overflow:visible;"/>
		</clipPath>
		<rect x="70.9" y="90.9" class="st25" width="145.3" height="26.9"/>
		<path class="st26" d="M120,101.5c4.2,1,3.2-1.4,6.7-1.6c1-0.1,4.4,1.1,4.9-5.3"/>
	</g>
	<g>
		<defs>
			<path id="SVGID_17_" d="M155.7,96.5c0-0.9-0.7-1.6-1.6-1.6s-1.6,0.7-1.6,1.6c0,0.1,0,0.1,0,0.2c-0.1,0-0.3,0.1-0.4,0.2
				c-0.4-0.6-1.1-1-1.8-1c-0.3,0-0.6,0.1-0.8,0.2c-0.4-1.1-1.4-1.9-2.7-1.9c-1.6,0-2.8,1.2-2.9,2.8c-0.1,0-0.3,0-0.4,0
				c-1.2,0-2.1,1-2.1,2.1c0,1.2,1,2.1,2.1,2.1c0.4,0,0.7-0.1,1-0.3c0.4,0.2,0.8,0.3,1.2,0.3c0.3,0,0.6,0,0.9-0.1
				c0,0,0.7,0.2,2.5,0.1c0.8,0,2-0.3,3-0.5c0,0,0,0,0,0c0.4,0.2,0.8,0.3,1.3,0.3c0.3,0,0.5,0,0.8-0.1c1-0.3,1.8-1.1,1.8-2.1
				c0-0.5-0.2-0.9-0.5-1.3C155.6,97.2,155.7,96.9,155.7,96.5z"/>
		</defs>
		<clipPath id="SVGID_18_">
			<use xlink:href="#SVGID_17_"  style="overflow:visible;"/>
		</clipPath>
		<rect x="70.9" y="90.9" class="st27" width="145.3" height="26.9"/>
		<path class="st28" d="M142.6,101.7c5.2-2.9,2.1,0.1,6.2-0.7c2.8-0.6,7.8,0.8,7.6-3.5"/>
	</g>
	<g>
		<defs>
			<path id="SVGID_19_" d="M161.9,97c-0.2-0.6-0.8-1.1-1.5-1.1c-0.9,0-1.6,0.8-1.6,1.8c0,0.3,0.1,0.6,0.2,0.8c-0.6,0.2-1,0.7-1,1.3
				c0,0.8,0.8,1.4,1.7,1.4c0.5,0,1-0.2,1.3-0.5c0.2,0.1,0.4,0.1,0.7,0.1c1,0,1.9-0.8,1.9-1.9C163.7,97.9,162.9,97.1,161.9,97z"/>
		</defs>
		<clipPath id="SVGID_20_">
			<use xlink:href="#SVGID_19_"  style="overflow:visible;"/>
		</clipPath>
		<rect x="70.9" y="90.9" class="st29" width="145.3" height="26.9"/>
		<path class="st30" d="M142.3,100.4c4.2,1,9,0.7,13.1,0.6c6.4-0.2,5.3,0.6,9-3.3"/>
	</g>
</g>
</svg>
